<?xml version="1.0" standalone="no"?>
<!DOCTYPE svg PUBLIC "-//W3C//DTD SVG 1.1//EN" "http://www.w3.org/Graphics/SVG/1.1/DTD/svg11.dtd" >
<svg xmlns="http://www.w3.org/2000/svg">
<metadata>
Created by FontForge 20120731 at Wed Apr 19 21:03:08 2017
 By admin
</metadata>
<defs>
<font id="iconfont" horiz-adv-x="1024" >
  <font-face 
    font-family="iconfont"
    font-weight="500"
    font-stretch="normal"
    units-per-em="1024"
    panose-1="2 0 6 3 0 0 0 0 0 0"
    ascent="896"
    descent="-128"
    x-height="792"
    bbox="0 -214 1109.13 896"
    underline-thickness="0"
    underline-position="0"
    unicode-range="U+0078-E763"
  />
<missing-glyph 
 />
    <glyph glyph-name=".notdef" 
 />
    <glyph glyph-name=".notdef" 
 />
    <glyph glyph-name=".null" horiz-adv-x="0" 
 />
    <glyph glyph-name="nonmarkingreturn" horiz-adv-x="341" 
 />
    <glyph glyph-name="x" unicode="x" horiz-adv-x="1001" 
d="M281 543q-27 -1 -53 -1h-83q-18 0 -36.5 -6t-32.5 -18.5t-23 -32t-9 -45.5v-76h912v41q0 16 -0.5 30t-0.5 18q0 13 -5 29t-17 29.5t-31.5 22.5t-49.5 9h-133v-97h-438v97zM955 310v-52q0 -23 0.5 -52t0.5 -58t-10.5 -47.5t-26 -30t-33 -16t-31.5 -4.5q-14 -1 -29.5 -0.5
t-29.5 0.5h-32l-45 128h-439l-44 -128h-29h-34q-20 0 -45 1q-25 0 -41 9.5t-25.5 23t-13.5 29.5t-4 30v167h911zM163 247q-12 0 -21 -8.5t-9 -21.5t9 -21.5t21 -8.5q13 0 22 8.5t9 21.5t-9 21.5t-22 8.5zM316 123q-8 -26 -14 -48q-5 -19 -10.5 -37t-7.5 -25t-3 -15t1 -14.5
t9.5 -10.5t21.5 -4h37h67h81h80h64h36q23 0 34 12t2 38q-5 13 -9.5 30.5t-9.5 34.5q-5 19 -11 39h-368zM336 498v228q0 11 2.5 23t10 21.5t20.5 15.5t34 6h188q31 0 51.5 -14.5t20.5 -52.5v-227h-327z" />
    <glyph glyph-name="fanhui" unicode="&#xe600;" horiz-adv-x="1000" 
d="M920 78q-16 0 -19 16q-2 7 -6 19t-21.5 43.5t-41.5 57.5q-109 114 -319 119v-162q0 -12 -11 -17.5t-21 1.5l-383 277q-9 6 -9 16.5t9 16.5l383 279q10 7 21 1.5t11 -17.5v-173q58 -2 117 -18q120 -31 196 -109q118 -119 114 -330q0 -8 -5 -13.5t-13 -6.5h-2zM493 374
q133 0 233 -42q81 -33 136 -93q17 -18 31 -38q-20 122 -95 199q-38 38 -86.5 64t-94.5 35.5t-72 13t-47 3.5q-3 0 -5 -1v0q-8 0 -14 6t-6 14v153l-330 -239l330 -239v144q0 8 5.5 14t14.5 6z" />
    <glyph glyph-name="fanhui1" unicode="&#xe602;" 
d="M625 692l-40 40l-365 -366l365 -366l40 40l-326 326z" />
    <glyph glyph-name="shouji" unicode="&#xe625;" 
d="M683 764h-341q-32 0 -54.5 -22.5t-22.5 -54.5v-775q0 -32 22.5 -54.5t54.5 -22.5h341q32 0 54.5 22.5t22.5 54.5v775q0 32 -22.5 54.5t-54.5 22.5zM466 702h93q6 0 10.5 -4.5t4.5 -11t-4.5 -11t-10.5 -4.5h-93q-7 0 -11.5 4.5t-4.5 11t4.5 11t11.5 4.5zM512.5 -134
q-19.5 0 -33 13.5t-13.5 33t13.5 33t33 13.5t33 -13.5t13.5 -33t-13.5 -33t-33 -13.5zM729 -10h-433v619h433v-619z" />
    <glyph glyph-name="trashbin" unicode="&#xe648;" 
d="M211 521h63l30 -521q0 -8 6 -13.5t14 -5.5h388q8 0 14 5.5t6 13.5l30 521h63q9 0 15 6t6 14.5t-6 14.5t-15 6h-76q-1 0 -2 -0.5t-1.5 -0.5t-1.5 0.5t-2 0.5h-107v54q0 8 -6 14t-15 6h-192q-9 0 -15 -6t-6 -14v-54h-107q-1 0 -2 -0.5l-1 -0.5l-1 0.5t-2 0.5h-77
q-9 0 -15 -6t-6 -14.5t6 -14.5t15 -6zM442 595h152v-33h-152v33zM721 521l-28 -499h-349l-29 499h406zM417 60h1q8 0 13.5 6.5t5.5 15.5l-22 379q0 9 -6.5 14.5t-15 5t-14 -7t-4.5 -14.5l21 -380q1 -8 6.5 -13.5t14.5 -5.5zM617 60h2q8 0 14 5.5t6 13.5l22 380
q0 8 -5.5 14.5t-14 7t-15 -5t-6.5 -14.5l-22 -379q0 -9 5.5 -15.5t13.5 -6.5zM517.5 60q8.5 0 14.5 6t6 14v380q0 9 -6 15t-14.5 6t-14.5 -6t-6 -15v-380q0 -8 6 -14t14.5 -6z" />
    <glyph glyph-name="ordinaryset" unicode="&#xe6bd;" 
d="M955 374h-44q-15 0 -29.5 10.5t-18.5 24.5l-26 62q-7 13 -4.5 30.5t13.5 28.5l32 31q10 11 10 26.5t-10 25.5l-53 52q-11 11 -26 11t-26 -11l-31 -31q-11 -11 -28.5 -13.5t-30.5 4.5l-62 26q-14 4 -24.5 18.5t-10.5 29.5v44q0 15 -11 26t-26 11h-74q-15 0 -26 -11
t-11 -26v-44q0 -16 -10.5 -30t-24.5 -18l-62 -26q-13 -7 -30.5 -4.5t-28.5 13.5l-31 32q-11 10 -26 10t-26 -10l-52 -53q-11 -10 -11 -25.5t11 -26.5l31 -31q11 -11 13.5 -28.5t-4.5 -30.5l-26 -62q-4 -14 -18.5 -24.5t-29.5 -10.5h-44q-15 0 -26 -11t-11 -26v-74
q0 -15 11 -26t26 -11h44q16 0 30 -10.5t18 -24.5l26 -62q7 -13 4.5 -30.5t-13.5 -28.5l-32 -31q-10 -11 -10 -26.5t10 -25.5l53 -53q11 -10 26 -10t26 10l31 32q11 11 28.5 13.5t30.5 -5.5l62 -25q14 -4 24.5 -18.5t10.5 -29.5v-44q0 -15 11 -26t26 -11h74q15 0 26 11t11 26
v44q0 15 10.5 29.5t24.5 18.5l62 25q13 8 30.5 5.5t28.5 -13.5l31 -32q11 -10 26 -10t26 10l53 53q10 11 10 26t-10 26l-32 31q-11 11 -13.5 28.5t4.5 30.5l26 62q4 14 18 24.5t30 10.5h44q15 0 26 11t11 26v74q0 15 -11 26t-26 11zM697 300q0 -76 -54 -130.5t-130.5 -54.5
t-131 54.5t-54.5 131t54.5 130.5t131 54t130.5 -54t54 -131v0z" />
    <glyph glyph-name="bangding" unicode="&#xe745;" 
d="M431 211l-30 -29q-20 -19 -48 -19t-48 19t-20 46t20 46l112 109q62 60 99 24q11 -10 26.5 -10t26.5 10.5t11 26t-11 25.5q-41 40 -96.5 33t-108.5 -58l-112 -108q-42 -41 -42 -98.5t42 -97.5t101 -40t100 40l31 30q11 10 11 25t-11 26t-26.5 11t-26.5 -11v0zM772 634
q-44 42 -98.5 44t-95.5 -37l-38 -37q-11 -10 -11 -25.5t11 -26t26.5 -10.5t26.5 11l38 36q23 19 46 15.5t42.5 -22.5t19.5 -46t-20 -46l-120 -116q-55 -53 -91 -18q-11 11 -26.5 11t-26.5 -10.5t-11 -26t11 -25.5q38 -37 84 -37q57 0 113 54l120 116q42 41 42 98t-42 98v0z
M512 888q-102 0 -195.5 -40t-161 -107.5t-107.5 -161t-40 -195.5t40 -195.5t107.5 -161t161 -107.5t196 -40t195.5 40t160.5 107.5t107.5 161t40 195.5t-40 195.5t-107.5 161t-160.5 107.5t-196 40v0zM512 -4q-106 0 -195 51.5t-141 141t-52 195.5t52 195t141 141t195 52
t195.5 -52t141.5 -141t52 -195t-52 -195t-141.5 -141t-195.5 -52v0zM512 -4z" />
    <glyph glyph-name="order" unicode="&#xe626;" 
d="M726 529h-357q-7 0 -12 -5t-5 -12t5 -12t12 -5h357q7 0 12 5t5 12t-5 12t-12 5zM726 416h-357q-7 0 -12 -5t-5 -12t5 -12t12 -5h357q7 0 12 5t5 12t-5 12t-12 5zM726 304h-357q-7 0 -12 -5t-5 -12t5 -12t12 -5h357q7 0 12 5t5 12t-5 12t-12 5zM297 304h-20q-7 0 -12 -5
t-5 -12t5 -12t12 -5h20q7 0 12 5t5 12t-5 12t-12 5zM726 192h-357q-7 0 -12 -5t-5 -12t5 -12t12 -5h357q7 0 12 5t5 12t-5 12t-12 5zM297 192h-20q-7 0 -12 -5t-5 -12t5 -12t12 -5h20q7 0 12 5t5 12t-5 12t-12 5zM297 417h-20q-7 0 -12 -5t-5 -12t5 -12t12 -5h20q7 0 12 5
t5 12t-5 12t-12 5zM297 530h-20q-7 0 -12 -5t-5 -12t5 -12t12 -5h20q7 0 12 5t5 12t-5 12t-12 5zM844 799h-665q-21 0 -35.5 -14.5t-14.5 -35.5v-752q0 -21 14.5 -35.5t35.5 -14.5h665q21 0 35.5 14.5t14.5 35.5v752q0 21 -14.5 35.5t-35.5 14.5zM859 -3q0 -6 -4.5 -10
t-10.5 -4h-665q-6 0 -10 4t-4 10v752q0 6 4 10t10 4h665q6 0 10.5 -4t4.5 -10v-752v0zM424 640h171q10 0 17 7t7 16.5t-7 16.5t-17 7h-171q-9 0 -16 -7t-7 -16.5t7 -16.5t16 -7z" />
    <glyph glyph-name="mima" unicode="&#xe6ec;" 
d="M864 428h-96q0 106 -75 181t-181 75t-181 -75t-75 -181h-96q-13 0 -22.5 -9.5t-9.5 -22.5v-448q0 -13 9.5 -22.5t22.5 -9.5h704q13 0 22.5 9.5t9.5 22.5v448q0 13 -9.5 22.5t-22.5 9.5zM512 620q79 0 135.5 -56.5t56.5 -135.5h-384q0 79 56.5 135.5t135.5 56.5zM832 -20
h-640v384h640v-384zM576 236q0 27 -18.5 45.5t-45.5 18.5t-45.5 -18.5t-18.5 -45.5q0 -35 32 -54v-138h64v138q32 19 32 54z" />
    <glyph glyph-name="daifukuan" unicode="&#xe61f;" 
d="M902 -73q-10 -9 -23 -9h-98q-13 0 -22.5 9.5t-9.5 22.5v130q0 13 9.5 23t23 10t23 -10t9.5 -23v-97h65q13 0 22.5 -9.5t9.5 -23t-9 -23.5v0zM957 34q-14 32 -38.5 56.5t-57 38.5t-68.5 14q-38 0 -70.5 -14t-56.5 -38.5t-38.5 -57t-14.5 -68.5q0 -37 14.5 -69.5t38.5 -57
t56.5 -38.5t70.5 -14q36 0 68.5 14t57 38.5t38.5 57t14 69.5q0 36 -14 69v0zM192 -99q-27 0 -46.5 19.5t-19.5 46.5v684q0 27 19.5 46t46.5 19h558q27 0 46 -19t19 -46v-455q39 -4 73 -21v483q0 54 -38.5 92.5t-92.5 38.5h-573q-54 0 -92.5 -38.5t-38.5 -92.5v-699
q0 -54 38.5 -92.5t92.5 -38.5h425q-26 33 -39 73h-378zM623 626h71l-166 -285h132v-57h-161v-92h161v-54h-160v-136h-67v136h-166v54h166v92h-166v57h142l-167 285h73q33 -59 69 -120.5t57 -97t28 -51.5z" />
    <glyph glyph-name="search01" unicode="&#xe652;" 
d="M890 22l-245 246q69 81 69 189q0 121 -85.5 206.5t-207 85.5t-207 -85.5t-85.5 -207t85.5 -207t207.5 -85.5q107 0 188 69l246 -245q7 -7 17 -7t17 7t7 17t-7 17zM422 213q-101 0 -172.5 71.5t-71.5 172.5t71.5 172t172.5 71t172 -71t71 -172t-71 -172.5t-172 -71.5z" />
    <glyph glyph-name="wo" unicode="&#xe610;" 
d="M665 231q56 39 88.5 100.5t32.5 132.5q0 118 -83.5 201.5t-201.5 83.5t-201.5 -83.5t-83.5 -201.5q0 -74 34.5 -136.5t93.5 -101.5q-110 -48 -178.5 -148.5t-71.5 -224.5h41q3 120 74.5 215t182.5 132q52 -21 109 -21q61 0 117 25q116 -34 191 -130.5t78 -220.5h41
q-3 127 -75.5 229.5t-187.5 148.5zM501 220q-101 0 -172.5 71.5t-71.5 172.5t71.5 172.5t172.5 71.5t172.5 -71.5t71.5 -172.5t-71.5 -172.5t-172.5 -71.5z" />
    <glyph glyph-name="home" unicode="&#xe6de;" 
d="M954 306l-423 436q-6 6 -19 6t-19 -6l-423 -436q-4 -9 -4 -21t4 -17v0q13 -13 39 0l403 416l403 -416q19 -19 39 0v0q4 5 4 17t-4 21zM826 249q-9 0 -17 -6.5t-12 -12.5l-3 -7v-288q0 -14 -12 -26t-27 -12h-486q-15 0 -27 12t-12 26v288v10.5t-2.5 9.5t-8 6h-14.5
q-6 0 -12.5 -6.5t-9.5 -12.5l-4 -7v-307q0 -25 18 -44.5t46 -19.5h538q25 0 44.5 18t19.5 46v307q0 9 -0.5 13t-5 8.5t-13.5 4.5z" />
    <glyph glyph-name="daipingjia" unicode="&#xe701;" 
d="M533 64l-54 2h-1q-93 10 -166 62q-80 55 -109 142q-16 47 -19.5 110t1.5 113q1 46 1 68q0 20 15.5 35t35.5 15q56 -2 114 -28q15 40 43 72q64 72 115 72q33 0 71 -29q28 -21 50 -49q24 -32 37 -69q69 29 123 31h2q20 0 34 -15q15 -15 15 -35q0 -41 -1 -121q-1 -18 -1 -27
v-19q-1 -77 -13 -114q-32 -93 -112.5 -152.5t-179.5 -63.5h-1zM482 112l51 -2q85 5 153.5 55.5t94.5 129.5q11 30 11 99v20q1 10 1 27q1 80 1 120q0 1 -1 2l-1 1q-51 -1 -131 -37l-26 -12l-6 28q-9 42 -36 77q-19 24 -43 42t-41 18q-30 0 -80 -56q-30 -34 -42 -79l-7 -28
l-26 13q-65 33 -118 34v0q-3 0 -3 -3q0 -23 -2 -70q-3 -48 -0.5 -106.5t16.5 -99.5q24 -69 87.5 -116t147.5 -57zM405 -88q-14 0 -21 12q-65 114 -139 143q-41 16 -88 4q-48 -12 -63 -46q-3 -9 -12 -13t-18 0t-12.5 13t-0.5 18q24 56 95 73q62 15 116 -6q50 -19 96 -69
q36 -39 67 -94q5 -8 2.5 -17.5t-11.5 -14.5q-5 -3 -11 -3zM619 -88q-6 0 -11 3q-9 5 -11.5 14.5t2.5 17.5q31 55 67 94q46 50 96 69q54 21 116 6q71 -17 95 -73q3 -9 -0.5 -18t-12.5 -13t-18 0t-12 13q-15 34 -63 46q-47 12 -88 -4q-74 -29 -139 -143q-7 -12 -21 -12z
M907 26zM512 -127q-10 0 -16.5 7t-6.5 16v191q0 10 6.5 16.5t16.5 6.5t16.5 -6.5t6.5 -16.5v-191q0 -9 -6.5 -16t-16.5 -7z" />
    <glyph glyph-name="daifahuo" unicode="&#xe646;" horiz-adv-x="1026" 
d="M793 549h34q7 0 11 -6l152 -190q3 -4 3 -9v-233q0 -18 -13 -30.5t-30 -12.5h-53q-5 -41 -34.5 -68.5t-69.5 -30.5v28q32 3 54.5 27t22.5 57t-22.5 57.5t-54.5 27.5v28q40 -3 69.5 -30.5t34.5 -67.5h53q6 0 11 4q4 5 4 11v169h-172v28h172v31l-77 97h-95v28h73l-45 57h-28
v28zM344 694q26 -14 47 -35v0q10 -10 19 -22h154q24 0 40 -16v0q16 -16 16 -39v-33h173v-28h-173v-425h53q6 42 38 70t74 28h8v-28h-8q-35 0 -60 -24.5t-25 -60t25 -60t60 -24.5h8v-28h-8q-42 0 -74.5 28.5t-37.5 70.5h-281q-6 -50 -48 -79v37q21 24 21 55.5t-21 55.5v37
q42 -29 48 -78h200v486q0 11 -8 19v0q-8 8 -20 8h-136q25 -46 25 -99q0 -87 -62 -149q-21 -21 -46 -35v32q15 11 27 23q53 54 53 129.5t-53 128.5v0q-13 12 -28 23v32zM793 464h-33q-18 0 -31.5 -13t-13.5 -32v-95q0 -18 13.5 -31t31.5 -13h33v28h-33q-7 0 -12 4.5t-5 11.5
v95q0 7 5 12t12 5h33v28zM243 721q54 0 101 -27v-32q-46 31 -101 31q-18 0 -34 -3v28q17 3 34 3v0v0zM344 -11q-29 -20 -64 -20q-40 0 -71 25v41q25 -39 71 -39q39 0 64 30v-37zM344 358v-32q-47 -26 -101 -26q-17 0 -34 2v28q17 -3 34 -3q55 0 101 32v0v-1zM344 174v-37
q-25 29 -64 29q-46 0 -71 -38v41q31 25 71 25q35 0 64 -20v0v0zM209 464v36l20 17v119q0 10 7 14t13.5 0t6.5 -14v-126q0 -6 -5 -11zM209 -6q-35 29 -41 74h-43q-23 0 -39.5 16.5t-16.5 39.5v268q-37 53 -37 118q0 87 62 149q48 48 115 59v-28q-55 -11 -96 -51
q-53 -53 -53 -129t53 -129v0q41 -40 96 -51v-28q-65 11 -113 57v-235q0 -12 8.5 -20t19.5 -8h44q6 44 41 73v-41q-14 -21 -14 -46.5t14 -46.5v-41zM209 500l-22 -18l-19 -17q-8 -6 -6 -14t9 -10t14 3l24 20v36zM209 500z" />
    <glyph glyph-name="fenlei" unicode="&#xe6ee;" 
d="M455 279.5q42 -82.5 130.5 -111.5t171.5 13.5t111.5 131t-14 171t-131 111t-171 -13.5t-111 -130.5t13.5 -171zM570.5 546q68.5 35 141.5 11.5t107.5 -92t11 -141.5t-91.5 -107.5t-141 -11t-108 91.5t-11.5 141t92 108zM879 10l-63 124q-5 10 -16 13.5t-22 -1.5l-6 -3
q-10 -5 -13.5 -16t1.5 -21l63 -124q5 -11 16 -14.5t22 2.5l6 3q10 5 13.5 16t-1.5 21zM134 560h303q9 0 15.5 6.5t6.5 16t-6.5 15.5t-15.5 6h-303q-9 0 -15.5 -6t-6.5 -15.5t6.5 -16t15.5 -6.5zM134 363h224q9 0 15.5 6.5t6.5 15.5t-6.5 15.5t-15.5 6.5h-224
q-9 0 -15.5 -6.5t-6.5 -15.5t6.5 -15.5t15.5 -6.5zM134 165h289q9 0 15.5 6.5t6.5 15.5t-6.5 15.5t-15.5 6.5h-289q-9 0 -15.5 -6.5t-6.5 -15.5t6.5 -15.5t15.5 -6.5zM729 10h-596q-9 0 -15 -6t-6 -14.5t6 -14.5t15 -6h596q8 0 14 6t6 14.5t-6 14.5t-14 6z" />
    <glyph glyph-name="faxian" unicode="&#xe634;" 
d="M512 811q-115 0 -213.5 -57.5t-156 -156t-57.5 -213.5t57.5 -213.5t156 -156t213.5 -57.5t213.5 57.5t156 156t57.5 213.5t-57.5 213.5t-156 156t-213.5 57.5zM512 0q-158 0 -271 113t-113 271t113 271t271 113t271 -113t113 -271t-113 -271t-271 -113zM512 341
q18 0 30.5 12.5t12.5 30.5t-12.5 30.5t-30.5 12.5t-30.5 -12.5t-12.5 -30.5t12.5 -30.5t30.5 -12.5zM723 617q-6 0 -8 -3l-276 -108q-33 -14 -46 -47l-109 -276q-5 -11 1.5 -20t17.5 -9q6 0 8 2l276 109q33 13 47 46l108 276q5 11 -1 20.5t-18 9.5zM593 326q-7 -16 -23 -23
l-229 -92l92 228q7 17 24 24l228 92z" />
    <glyph glyph-name="daishouhuo" unicode="&#xe638;" horiz-adv-x="1026" 
d="M1018 251h-20q20 9 20 32v0v511q0 14 -10 24.5t-25 10.5h-506q-15 0 -25 -10.5t-10 -24.5v-69q-3 9 -10 15t-17 6h-195q-12 0 -25 -6.5t-20 -15.5l-113 -143q-18 -22 -18 -50v-238h-9q-14 0 -23.5 -9.5t-9.5 -23.5v-66q0 -14 9.5 -23.5t23.5 -9.5h55q19 -5 33 0
q-1 -46 28.5 -81.5t75.5 -42.5q50 -8 91 22t49 81q2 14 1 30q16 -9 37 -5.5t21 15.5q0 1 -0.5 1.5t-0.5 1.5h189q0 -13 20.5 -20.5t35.5 -1.5q0 -46 29 -81.5t75 -42.5q50 -8 91 22t49 81q2 14 1 30q16 -9 37.5 -5.5t20.5 15.5q0 1 -0.5 1.5t-0.5 1.5h46q7 0 7 7v54
q0 7 -7 7zM460 596h277v-266q-56 -18 -90 -64h-170q-7 0 -12 5t-5 12v313zM983 266h-45q-44 61 -119 72h-4h-3v258h188v-313q0 -7 -5 -12t-12 -5zM1000 794v-122h-188v138h171q7 0 12 -4.5t5 -11.5zM477 810h260v-138h-277v122q0 7 5 11.5t12 4.5zM366 431h-44q-17 0 -17 9
q0 7 5 14t12 7h44q7 0 12.5 -7t5.5 -14q0 -9 -18 -9zM83 534q0 14 8 24l106 133q13 16 34 16h130q9 0 15 -6t6 -15v-170q0 -9 -6 -15t-15 -6h-260q-18 0 -18 17v22zM315.5 147.5q-4.5 -29.5 -28 -46.5t-52.5 -12.5t-46.5 28t-13 52.5t28 46.5t53 13t46.5 -28t12.5 -53z
M863.5 147.5q-4.5 -29.5 -28.5 -46.5t-53 -12.5t-46.5 28t-13 52.5t28.5 46.5t53 13t46.5 -28t13 -53z" />
    <glyph glyph-name="qianjin" unicode="&#xe763;" 
d="M303.5 830q12.5 0 21.5 -8l416 -417q9 -9 9 -21t-9 -21l-416 -417q-9 -8 -21.5 -8t-21 8.5t-8.5 21t9 20.5l395 396l-395 396q-9 8 -9 20.5t8.5 21t21 8.5z" />
    <glyph glyph-name="daifukuan1" unicode="&#xe61e;" 
d="M781 10h-605q-47 0 -80.5 33t-33.5 80v543q0 47 33.5 80t80.5 33h605q47 0 80.5 -33t33.5 -80v-89q0 -9 -5.5 -14.5t-13.5 -5.5t-14 5.5t-6 14.5v89q0 30 -22 52t-53 22h-605q-31 0 -53 -22t-22 -52v-543q0 -31 22 -52.5t53 -21.5h605q31 0 53 21.5t22 52.5v106
q0 8 6 13.5t14 5.5t13.5 -5.5t5.5 -13.5v-106q0 -47 -33.5 -80t-80.5 -33zM881 274h-272q-34 0 -58 24t-24 58v92q0 33 24 57t58 24h272q34 0 58 -24t24 -57v-92q0 -34 -24 -58t-58 -24zM609 491q-18 0 -30.5 -13t-12.5 -30v-92q0 -18 12.5 -30.5t30.5 -12.5h272
q18 0 30.5 12.5t12.5 30.5v92q0 17 -12.5 30t-30.5 13h-272zM658.5 365q-15.5 0 -26 10.5t-10.5 26t10.5 26t26 10.5t26.5 -10.5t11 -26t-11 -26t-26.5 -10.5zM659 404q-2 0 -2 -2t2 -2t2 2t-2 2z" />
    <glyph glyph-name="gerenxinxi" unicode="&#xe6b0;" 
d="M512 -128q104 0 199 40.5t163.5 109t109 163.5t40.5 199t-40.5 199t-109 163.5t-163.5 109t-199 40.5t-199 -40.5t-163.5 -109t-109 -163.5t-40.5 -199t40.5 -199t109 -163.5t163.5 -109t199 -40.5v0zM512 832q91 0 174 -35.5t143 -95.5t95.5 -143t35.5 -174t-35.5 -174
t-95.5 -143t-143 -95.5t-174 -35.5t-174 35.5t-143 95.5t-95.5 143t-35.5 174t35.5 174t95.5 143t143 95.5t174 35.5v0zM512 696q77 0 131 -53.5t54 -129.5t-54 -130t-131 -54t-131 54t-54 130t54 129.5t131 53.5v0zM512 382q55 0 93.5 38.5t38.5 92.5t-38.5 92.5
t-93.5 38.5t-93.5 -38.5t-38.5 -92.5t38.5 -92.5t93.5 -38.5v0zM512 382q109 0 186.5 -77t77.5 -185h-53q0 87 -62 148t-149 61t-149 -61t-62 -148h-53q0 108 77.5 185t186.5 77v0zM512 382z" />
    <glyph glyph-name="shuaxin" unicode="&#xe650;" 
d="M960 266q-20 5 -32 -13q-28 -76 -85.5 -133.5t-131 -87t-158.5 -34t-169 27.5q-83 29 -147 84.5t-98.5 124.5t-42.5 147.5t22 155.5q29 75 86.5 132.5t131 87.5t158.5 34t168 -27q70 -24 128 -68.5t96 -104.5h-92q-10 0 -18 -6.5t-8 -15.5q0 -10 7 -16.5t19 -6.5h153
q10 0 18 6.5t8 16.5v140q0 10 -7 16.5t-19 6.5q-10 0 -17.5 -6.5t-7.5 -16.5v-89q-88 131 -247 189q-93 33 -187.5 28t-176 -38.5t-146.5 -98t-98 -147.5q-25 -68 -26.5 -139.5t21 -137.5t63.5 -123.5t102 -102.5t135 -70q93 -34 187.5 -28.5t176 39t146.5 97.5t98 148
q6 7 3 15.5t-13 13.5z" />
    <glyph glyph-name="shouyeshouye" unicode="&#xe631;" 
d="M949 377l-440 411l-441 -410q-6 -6 -6.5 -15t5.5 -15.5t15 -6.5t15 6l412 383l411 -384q6 -6 14 -6q10 0 16 7q6 6 6 15t-7 15v0zM949 377zM815 368q-9 0 -15.5 -6t-6.5 -15v-327h-170v227h-228v-227h-171v327q0 9 -6 15t-15 6t-15.5 -6t-6.5 -15v-370h257v228h142v-228
h256v370q0 9 -6 15t-15 6v0zM815 368zM665 674h128v-114q0 -9 6.5 -15t15.5 -6t15 6t6 15v157h-171q-9 0 -15 -6.5t-6 -15.5t6 -15t15 -6v0zM665 674z" />
    <glyph glyph-name="alldingdan" unicode="&#xe68a;" 
d="M758 725h-45q-11 0 -19.5 -6t-8.5 -15t9 -17t19 -8h45q21 0 33.5 -12.5t12.5 -33.5v-526q0 -21 -12.5 -33.5t-33.5 -12.5h-492q-22 0 -39.5 13t-17.5 33v526q0 21 12.5 33.5t32.5 12.5h58q17 0 17 25q0 21 -17 21h-58q-46 0 -68.5 -25.5t-22.5 -67.5v-521q0 -43 25 -69.5
t71 -26.5h495q46 0 71 24.5t25 71.5v521q0 41 -24 67t-68 26v0zM312 518q0 -9 7 -16t16 -7h344q9 0 16 7t7 16.5t-7 16.5t-16 7h-344q-9 0 -16 -7t-7 -17v0zM678 415h-343q-9 0 -16 -7t-7 -16.5t7 -16.5t16 -7h344q9 0 16 7t7 17q-1 10 -8 16.5t-16 6.5v0zM678 278h-343
q-9 0 -16 -7t-7 -16.5t7 -16.5t16 -7h344q9 0 16 7t7 17q-1 10 -8 16.5t-16 6.5v0zM428 667h159q14 0 24 12t10 28t-10 28t-25 12h-158q-15 0 -25.5 -12t-10.5 -28t10.5 -28t25.5 -12v0zM428 667z" />
    <glyph glyph-name="dizhiguanli" unicode="&#xe65f;" 
d="M409 455v0q0 -42 30 -72t72 -30t72 30t30 72v0q0 42 -30 71.5t-72 29.5t-72 -29.5t-30 -71.5v0zM511 832q-91 0 -173.5 -35.5t-142.5 -95.5t-95.5 -142.5t-35.5 -173.5t35.5 -174t95.5 -143t142.5 -95t173.5 -35t174 35t142.5 95t95 143t35.5 174t-35.5 173.5t-95 142.5
t-142.5 95.5t-174 35.5zM734 455v-11q0 -1 -1 -1q-2 -19 -6.5 -42t-19.5 -66t-37.5 -86t-64 -100t-94.5 -110q-163 164 -213 359q-7 23 -9 48l-1 9v0v11q0 93 65.5 158.5t158 65.5t158 -65.5t65.5 -158.5l-1 -11v0z" />
    <glyph glyph-name="wodeshoucang" unicode="&#xe694;" 
d="M512 832q-91 0 -174 -35.5t-143 -95.5t-95.5 -143t-35.5 -174t35.5 -174t95.5 -143t143 -95.5t174 -35.5t174 35.5t143 95.5t95.5 143t35.5 174t-35.5 174t-95.5 143t-143 95.5t-174 35.5zM703 109l-191 101l-192 -101l37 214l-155 151l214 31l96 194l95 -194l215 -31
l-155 -151z" />
    <glyph glyph-name="changyonglogo40" unicode="&#xe722;" 
d="M518 220q-49 -3 -90.5 23t-61.5 68q-44 93 17 174q57 75 156 63q46 -5 83 -37q10 -8 9.5 -13t-11.5 -11q-37 -22 -38 -22q-87 -51 -104 -61q-28 -18 -11 -48q8 -15 23 -18.5t32 6.5q23 13 64 37t75.5 44t64.5 37q14 8 7 24q-27 58 -78 93q-118 80 -243 21t-137 -200
q-9 -109 78 -193q57 -55 141 -62.5t150 36.5q17 12 18 17t-10 22q-11 19 -24 23t-33 -5q-42 -21 -77 -18zM748 327q-1 15 -19 48q-4 6 -12 1q-37 -21 -47 -26q-9 -6 -4 -15q17 -28 27 -46q5 -10 15 -4q27 18 28 18q13 9 12 24z" />
    <glyph glyph-name="dianshang" unicode="&#xe63b;" horiz-adv-x="1109" 
d="M566 -74zM512 -74q0 22 16 38t38 16t38 -16t16 -38t-16 -38t-38 -16t-38 16t-16 38zM889 -74zM835 -74q0 22 16 38t38.5 16t38 -16t15.5 -38t-15.5 -38t-38 -16t-38.5 16t-16 38zM1051 34h-614q-49 0 -85.5 29.5t-44.5 77.5l-145 663q0 8 -7 15t-15 7l-118 16
q-9 0 -15.5 10t-6.5 22q0 9 10 15.5t22 6.5l114 -16q24 -4 42 -22.5t22 -42.5l146 -663q8 -28 30 -46t51 -18h614q12 0 19.5 -7.5t7.5 -19.5t-7.5 -19.5t-19.5 -7.5zM911 195h-453q-12 0 -19.5 7.5t-7.5 19.5t7.5 19.5t19.5 7.5h453q28 0 50.5 18t30.5 47l59 269
q9 37 -16 70q-20 27 -65 27h-620q-12 0 -19.5 7.5t-7.5 19.5t7.5 19.5t19.5 7.5h620q67 0 108 -48q20 -25 27.5 -55t-0.5 -58l-59 -270q-13 -48 -50 -78t-85 -30z" />
    <glyph glyph-name="fenxiao" unicode="&#xe603;" 
d="M512 891q-104 0 -198 -40.5t-162.5 -108.5t-108.5 -162.5t-40 -198t40 -198t108.5 -162.5t162.5 -108.5t198 -40.5t198 40.5t162.5 108.5t108.5 162.5t40 198t-40 198t-108.5 162.5t-162.5 108.5t-198 40.5zM724 113q-26 0 -44.5 18t-18.5 43t18.5 43t44.5 18h2.5h2.5
q-24 58 -76.5 97t-119.5 45v-145q19 -7 31 -22.5t12 -34.5q0 -26 -18.5 -44t-44.5 -18q-27 0 -45.5 18t-18.5 44q0 19 12 34.5t31 22.5v145q-67 -6 -119.5 -44.5t-76.5 -97.5h2.5h2.5q26 0 44.5 -18t18.5 -43t-18.5 -43t-44.5 -18t-44.5 18t-18.5 43q0 36 34 54
q23 69 82.5 116t137.5 53v64q-37 7 -61 35t-24 65q0 42 31 72t75 30q43 0 74 -30t31 -72q0 -37 -24 -65t-61 -35v-64q78 -6 137.5 -53t82.5 -116q34 -18 34 -54q0 -25 -18.5 -43t-44.5 -18z" />
    <glyph glyph-name="xiugaimima" unicode="&#xe656;" 
d="M512.5 892q-103.5 0 -198 -40t-162.5 -108.5t-108 -162.5t-40 -197.5t40 -197.5t108 -162t162.5 -108.5t198 -40.5t197.5 40.5t162 108.5t108.5 162t40.5 197.5t-40.5 197.5t-108.5 162.5t-162 108.5t-197.5 40zM512 -61q-90 0 -172.5 35.5t-142 95t-95 141.5
t-35.5 172.5t35.5 173t95 142t142 94.5t172.5 35t172.5 -35t142 -94.5t95 -142t35.5 -173t-35.5 -172.5t-95 -141.5t-142 -95t-172.5 -35.5zM512 565q-26 0 -44 -14t-18 -33v-109q0 -5 1 -11h122q2 6 2 11v109q0 19 -18.5 33t-44.5 14zM512 355q-24 0 -41 -17t-17 -41
q0 -33 29 -50v-22q0 -12 8.5 -20.5t20.5 -8.5t20.5 8.5t8.5 20.5v22q29 17 29 50q0 24 -17 41t-41 17zM692 450v64q0 68 -53 116.5t-127 48.5t-126.5 -48.5t-52.5 -116.5v-64q-26 -14 -42 -39.5t-16 -55.5v-159q0 -45 31.5 -76t75.5 -31h260q45 0 76 31t31 76v159
q0 30 -15.5 55.5t-41.5 39.5zM686 196q0 -18 -13 -31t-31 -13h-260q-18 0 -30.5 13t-12.5 31v159q0 18 12.5 30.5t30.5 12.5h14v116q0 42 34 71.5t82 29.5t82 -29.5t34 -71.5v-116h14q18 0 31 -12.5t13 -30.5v-159z" />
    <glyph glyph-name="weibo" unicode="&#xe65b;" 
d="M463 419q-74 -8 -122.5 -46.5t-42.5 -85.5q4 -47 60 -74.5t129 -19.5t121.5 46.5t43.5 85.5t-60.5 74.5t-128.5 19.5zM461 213q-39 -2 -65.5 21t-24.5 59t29.5 60.5t65.5 24.5q39 0 64.5 -23.5t24.5 -57.5t-28.5 -58t-65.5 -26zM482 309zM470 309v0q0 -5 3.5 -8.5t8 -3.5
t8 3.5t3.5 8.5v0v0q0 5 -3.5 8t-8 3t-8 -3t-3.5 -8v0zM435 304q-14 0 -24 -8.5t-9 -19.5q0 -13 9 -20.5t22 -6.5t22.5 9.5t9.5 18.5q1 12 -7.5 20t-22.5 7zM511 896q-104 0 -198.5 -40.5t-163 -109t-109 -163t-40.5 -198.5t40.5 -198.5t109 -163t163 -109t198.5 -40.5
t198.5 40.5t163 109t109 163t40.5 198.5t-40.5 198.5t-109 163t-163 109t-198.5 40.5zM659 511q-1 0 0 0h-4q-7 0 -12 4.5t-5 11.5q0 13 16 15q31 2 51.5 -6t27.5 -21t9.5 -26t0.5 -22l-1 -9q-2 -11 -14 -11q-13 0 -13 14q0 4 1 5q0 19 -7 30.5t-18 14t-18.5 2.5t-13.5 -2z
M744 320q0 -59 -88 -118q-62 -38 -145 -43.5t-155 24.5t-100 88q-22 49 0 100q8 21 54 76.5t64 64.5q17 18 58.5 35t63.5 11t29.5 -27t0.5 -42q-3 -11 2.5 -17t13.5 -2q2 1 12.5 7.5t25.5 11.5q25 6 43 4.5t37 -16.5q13 -9 14.5 -24t-2.5 -26l-5 -11q-8 -12 4 -15
q75 -25 73 -78v-3zM827 440q-5 -17 -24 -17q-9 0 -15.5 7t-6.5 17q0 2 2 7q5 38 -5.5 65t-28.5 38.5t-37 17.5t-33 6h-14h-3q-10 1 -16 8t-6 16q1 9 6.5 15t13.5 7h5q42 -2 73 -14t48 -28.5t27.5 -36t13 -38.5t3 -34.5t-1 -25.5z" />
    <glyph glyph-name="fuwuzhongxin" unicode="&#xe60a;" 
d="M512 896q-139 0 -257 -68.5t-186.5 -186.5t-68.5 -257t68.5 -257t186.5 -186.5t257 -68.5t257 68.5t186.5 186.5t68.5 257t-68.5 257t-186.5 186.5t-257 68.5zM783 384q-34 -40 -96 -114.5t-107 -128.5l-45 -54q-7 -10 -19 -10t-19 9l-6 6.5t-16 18t-23.5 27t-29.5 34.5
t-34 39.5t-37.5 43t-38 44t-37 44t-34.5 41.5q-15 18 -26 47.5t-11 52.5q0 31 17 66.5t41 54.5q18 15 47 25t52 10q28 0 61.5 -14.5t53.5 -34.5q7 -7 7 -18q0 -10 -7.5 -17.5t-18.5 -7.5t-18 8q-14 14 -36.5 23.5t-41.5 9.5q-15 0 -35 -7t-32 -17q-16 -13 -27 -36.5
t-11 -43.5q0 -17 7.5 -37t18.5 -32q73 -88 234 -274q202 245 226 274q11 12 18 32t7 36q0 20 -11.5 44t-27.5 37q-12 10 -32 17t-35 7q-21 0 -45 -11.5t-37 -26.5l-75 -82q-7 -9 -20 -9q-10 0 -17.5 7.5t-7.5 17.5q0 11 8 19l73 80q20 24 55.5 40t65.5 16q23 0 52.5 -10
t47.5 -25q24 -19 41 -55t17 -66q0 -24 -10.5 -53t-25.5 -47z" />
    <glyph glyph-name="xiaofei" unicode="&#xe6c2;" 
d="M511.5 895q-104.5 0 -199 -40.5t-163 -109t-109 -163t-40.5 -199t40.5 -199t109 -163t163 -109t199 -40.5t199 40.5t163 109t109 163t40.5 199t-40.5 199t-109 163t-163 109t-199 40.5zM729 319q18 0 30.5 -12.5t12.5 -30.5t-12.5 -31t-30.5 -13h-174v-101
q0 -18 -13 -30.5t-31 -12.5t-30.5 12.5t-12.5 30.5v101h-174q-18 0 -30.5 13t-12.5 31t12.5 30.5t30.5 12.5h174v87h-174q-18 0 -30.5 13t-12.5 30.5t12.5 30.5t30.5 13h105l-112 112q-13 13 -13 31t13 30.5t31 12.5t31 -12l159 -160l159 160q13 12 31 12t30.5 -12.5
t12.5 -30.5t-13 -31l-112 -112h113q18 0 30.5 -13t12.5 -31t-12.5 -30.5t-30.5 -12.5h-174v-87h174z" />
    <glyph glyph-name="search" unicode="&#xe601;" 
d="M873 77v0v0v0q10 -12 10 -26q0 -15 -11 -27q-11 -11 -27 -11v0q-7 0 -13 2q-9 3 -16 11v-1l-204 206q-74 -52 -165 -52q-9 0 -19 1q-18 1 -35 6q-56 3 -117 51q-41 24 -77 87q-29 49 -35 109l-1 -1q-2 16 -2 32q0 4 0 3q0 25 5 50q10 67 52 122q10 20 40 44.5t66 40.5
l-10 -3q10 7 41 18q43 16 92 16v0q20 0 38 -3q49 -6 94 -29q73 -39 113 -109l-2 7q11 -12 26 -54q20 -56 18 -113q-4 -95 -66 -171l206 -206h-1v0zM691 455v13q0 46 -18 88q-19 53 -61 91q-8 7 0 -1q-5 5 -10 9q-47 40 -108 52q-15 3 0 1q-24 3 -45 3q-15 0 -30 -2
q-2 0 -6 -1h-5q-66 -11 -116 -53q-19 -12 -39.5 -41t-32.5 -64q-1 3 -3 -3q-10 -24 -12 -69q-3 -62 23 -115q31 -69 97 -106q0 -3 12 -9.5t34 -13t44 -9.5q1 -2 11.5 -2.5t28 0t33.5 3.5q46 8 84 31q7 2 27 18.5t37 37.5l-1 -4q12 11 33 53q2 3 3 7l-14 -26q4 7 8 15v0
q25 48 26 104v-7z" />
    <glyph glyph-name="fuwuzhongxin1" unicode="&#xe604;" 
d="M508.5 881q-100.5 0 -192 -39t-158 -105.5t-105.5 -158t-39 -192.5t39 -192.5t105.5 -158t158 -105.5t192 -39t192.5 39t158 105.5t105.5 158t39.5 192.5t-39.5 192.5t-105.5 158t-158 105.5t-192.5 39zM808 398l-104 -103l25 -145q7 -39 -25 -63t-66 -5l-129 69
l-129 -69q-34 -18 -67 5q-32 23 -25 63l25 145l-104 103q-29 28 -16 66q6 18 19.5 29.5t31.5 14.5l145 21l65 133q7 16 22.5 26t33.5 10q38 0 56 -36l65 -133l145 -21q17 -3 30.5 -15t18.5 -29q11 -38 -17 -66z" />
    <glyph glyph-name="fuwuzhongxin-" unicode="&#xe605;" 
d="M988 561q9 104 -83 196q-35 35 -74 54t-73 21.5t-66.5 -3t-59 -18t-46 -24.5t-32 -21l-12.5 -9l-36 -41l-18 23q-1 0 -11.5 9t-28 21t-40 24.5t-54 21t-62.5 8.5q-92 0 -185 -84q-71 -71 -71 -166q0 -42 14.5 -84t38 -76.5t39.5 -53.5t33 -36l-18 -24q-18 -23 -14.5 -54
t26.5 -53q18 -18 48 -18h5q0 -34 30 -54q18 -18 48 -18h6v-6q0 -27 30 -47q17 -18 47 -18h12q0 -28 30 -48q18 -17 47 -17q18 0 42 11l12 -17q16 -24 53.5 -24t53.5 24q24 15 24 53v6h6q38 0 54 24q23 16 23 53v6q38 0 54 24q24 16 24 54v6h6q37 0 53 24q24 15 24 53
q0 36 -24 60l-12 12q54 34 93.5 94t43.5 132zM572 727q5 6 19.5 17t48 26.5t68.5 21t81 -9.5t86 -55q80 -80 72 -166q-8 -103 -102 -197l-196 203l-12 -18q-1 1 -13 -9t-32.5 -26.5t-44.5 -32.5t-56 -27.5t-62 -11.5q-54 0 -96 41zM185 227q-10 10 -12.5 24.5t6.5 23.5
l83 107q12 12 24 12q18 0 24 -6q12 -12 12 -24t-6 -18q-3 0 -4.5 -1.5t-3.5 -4.5t-4 -5l-90 -108q-4 -9 -14.5 -9t-14.5 9zM262 156q-10 10 -12 21t6 21l6 6l89 107v6q6 6 12 6q18 0 24 -6q12 -12 12 -24q0 -18 -6 -24q0 -6 -6 -6l-89 -107q-6 -6 -18 -6q-6 -6 -18 6z
M363 73q-18 0 -24 6q-11 12 -11 23q0 18 5 24l6 6l90 107q6 6 18 6h6q17 0 23 -6q10 -9 12 -20.5t-6 -20.5l-89 -107q0 -6 -6 -6q-4 -3 -9.5 -6t-8.5 -4.5t-6 -1.5zM423 19q-4 4 -6 6.5t-4 7t-2 10.5q0 12 6 18l89 107q0 6 6 6q12 12 24 12t24 -6q12 -12 12 -24
q0 -18 -6 -24l-96 -107q-17 -26 -47 -6zM601 -17q-12 -12 -29 -12q-6 0 -10 1.5t-11 5.5t-9 5l-24 30l48 60l35 -36q12 -12 12 -30q0 -12 -12 -24zM851 239q-8 -8 -23.5 -9.5t-23.5 3.5q0 6 -6 6l-131 143q-6 6 -12 6q-5 4 -12 1.5t-12 -7.5q-10 -10 0 -30l137 -142l6 -6
q17 -25 -6 -48q-9 -9 -24.5 -9t-29.5 9l-131 143l-5 6q-5 4 -12.5 4t-11.5 -4q-10 -10 0 -30l137 -143l6 -6q11 -12 11 -30q0 -5 -1 -9t-5 -11t-5 -9q-12 -12 -30 -12q-6 0 -10 1t-10.5 5t-9.5 6l-36 35q12 12 12 48q0 28 -30 48q-26 18 -59 18q0 27 -30 47q-25 33 -53 24v6
q0 28 -30 48q-16 23 -48 23v6q0 28 -30 48q-26 18 -53 18q-28 0 -48 -30l-47 -54q-22 22 -42.5 48.5t-42.5 76.5t-22 96q0 77 59 137q71 71 155 71q26 0 52.5 -7.5t45 -18t33.5 -21t22 -17.5l8 -7l17 -24l-196 -203l12 -12q62 -71 143 -71q43 0 91.5 22.5t76.5 44.5t52 46
l65 -71q0 -6 6 -6l137 -143q12 -12 12 -30q-1 -1 -6 -10.5t-12 -13.5z" />
    <glyph glyph-name="tuihuanhuo" unicode="&#xe632;" 
d="M242 580v-292q5 -8 14.5 -21t40 -46.5t63 -60t80.5 -48.5t95 -25q7 4 20 10t48 26.5t65 42.5t63 55t50 67v292l-262 46zM795 654q-2 0 -12.5 2t-15.5 3l-233 43q-12 1 -21 1q-10 0 -22 -1l-227 -42q-16 -4 -31 -5q-9 -1 -15.5 -10.5t-6.5 -22.5v-301q0 -30 17 -62
q14 -28 41 -58q26 -28 57 -52q36 -28 64 -44q27 -15 64 -31q29 -13 54 -18h8.5h8.5h1q18 4 54 18q33 14 61 31q27 16 62 44q33 27 55 52q27 31 40 58q16 31 16 62v301q-2 29 -19 32zM767 326q0 -23 -13 -48q-14 -27 -33 -48q-20 -24 -47 -46q-30 -24 -55 -38
q-26 -16 -54 -28q-27 -11 -45 -15h-8q-20 4 -46 15q-27 11 -56 28q-36 23 -56 38q-28 23 -49 46q-22 24 -35 48q-12 23 -12 48v277q0 6 3 9q12 1 28 5l207 39q9 2 16.5 2t15.5 -2l213 -39q3 -1 11.5 -2.5t12.5 -1.5q2 -5 2 -10v-277zM767 326zM350 538q27 -37 37 -56l34 18
q-8 13 -47 65l-31 -17q4 -3 7 -10zM350 538zM663 246q1 3 5 17q6 14 6 17q-99 -2 -188 0q-56 -2 -81 36v136h-74v-37h37v-101q-5 -6 -20 -19q-6 -4 -12.5 -10t-8.5 -8l18 -36q4 4 7 8q24 27 35 36q27 -35 90 -37q36 -2 70 -2h116zM663 246zM452 343q0 -17 -10 -29l18 -24
q12 5 19 7q4 1 6 3q3 1 12.5 3.5t15.5 4.5q3 1 43 12q-2 7 -2 17q-1 14 -1 16q-3 0 -18 -5q-37 -12 -48 -16v75h150q-12 -9 -46 -31q-3 -3 -7 -6l-49 30l-22 -21l40 -26q18 -12 68 -47q3 -2 7.5 -5.5t7.5 -4.5l26 26l-10.5 7t-12.5 8t-11 7t-10 6t-7 4l55 36l-23 22l-4 -5
v146h-187v-210zM488 525h117v-32h-117v32zM488 467h117v-32h-117v32zM488 467z" />
    <glyph glyph-name="gouwuchekong" unicode="&#xe668;" 
d="M361.5 -66q-24.5 0 -42 17.5t-17.5 42t17.5 41.5t42 17t41.5 -17t17 -41.5t-17 -42t-41.5 -17.5zM704.5 -66q-24.5 0 -41.5 17.5t-17 42t17 41.5t41.5 17t41.5 -17t17 -41.5t-17 -42t-41.5 -17.5zM825 240h-513l19 -90h451h1l-15 -60h-1h-485l-119 550h-66l-16 60h131
l31 -151h668zM300 301h477l56 188h-577zM682 607h67l-11 -24h-114l74 95h-69l22 24h105zM855 718h79l-13 -28h-134l87 113h-82l26 29h124z" />
    <glyph glyph-name="zhifubao" unicode="&#xe65c;" 
d="M192 203q0 48 28 77.5t60 34.5q31 5 69.5 -1t71.5 -17.5t61.5 -24.5t45 -22t16.5 -10q-50 -63 -116.5 -98.5t-124.5 -35.5q-49 4 -80 30t-31 67zM980 166q-1 0 -39 12t-83 27t-92.5 30.5t-78 27.5t-27.5 14q21 25 40.5 71.5t28.5 80.5l10 34v28h-186v69h227v42h-227v102
h-92v-98h-204v-41h204v-70h-162v-28h333q0 -13 -15.5 -66.5t-30.5 -81.5q-3 5 -43.5 19.5t-97.5 29t-96 16.5q-145 -8 -190 -97q-12 -37 -13 -71.5t14 -65.5t40 -54t65 -36.5t89 -13.5q16 0 40 5t63 18.5t82.5 47t78.5 82.5q185 -93 283 -144q-71 -85 -172 -133t-217 -48h-2
q-103 0 -197 40.5t-162.5 108.5t-108.5 162t-40 198v1v1q0 104 40 198t108.5 162t162.5 108.5t197 40.5h2h1q103 0 197.5 -40.5t162.5 -108.5t108 -162t40 -198v-1q6 -107 -41 -218z" />
    <glyph glyph-name="QQdenglu" unicode="&#xe6b7;" 
d="M521 877q-102 0 -195 -40t-160 -107t-107 -160t-40 -195t40 -195t107 -160t160 -107t195 -40t195 40t160.5 107t107 160t39.5 195t-39.5 195t-107 160t-160.5 107t-195 40zM743 252q-15 -43 -45 -82q3 -1 6.5 -2.5t12 -7t15 -12t11 -18t3.5 -24.5q0 -2 -0.5 -5.5
t-6.5 -12t-16 -15t-33 -11t-55 -3.5q-9 0 -23 2t-42 12.5t-38 24.5h-21q-11 -14 -39 -24.5t-42 -12.5t-23 -2v0q-31 -1 -54 3.5t-33.5 11t-16.5 15.5t-6.5 12t-0.5 5q-2 21 10 37t25 21l13 6q-13 17 -24.5 38t-15.5 32l-5 12q-52 -84 -62 -19q-2 10 -2 35q6 35 23.5 66.5
t31.5 46.5l14 15q-3 31 2 51.5t12 25.5l7 5q2 44 13.5 79.5t27.5 57t38 37.5t40 23t38 11t27.5 4.5t11.5 -0.5q5 1 12.5 0.5t27 -4.5t37.5 -11t40 -23t38.5 -37.5t28 -57t12.5 -79.5q1 0 3 -1.5t7 -7t7.5 -14.5t5 -24t-1.5 -35q6 -6 16 -16.5t28.5 -43.5t24.5 -68v0v-5v-11
t-1 -14.5t-2.5 -14t-4.5 -12t-8 -5.5t-11.5 2.5t-15.5 14.5t-21 29zM743 252z" />
  </font>
</defs>
</svg>
